<?xml version="1.0" encoding="UTF-8" standalone="no"?>
<!-- Created with Inkscape (http://www.inkscape.org/) -->

<svg
   xmlns:dc="http://purl.org/dc/elements/1.1/"
   xmlns:cc="http://creativecommons.org/ns#"
   xmlns:rdf="http://www.w3.org/1999/02/22-rdf-syntax-ns#"
   xmlns:svg="http://www.w3.org/2000/svg"
   xmlns="http://www.w3.org/2000/svg"
   xmlns:xlink="http://www.w3.org/1999/xlink"
   xmlns:sodipodi="http://sodipodi.sourceforge.net/DTD/sodipodi-0.dtd"
   xmlns:inkscape="http://www.inkscape.org/namespaces/inkscape"
   width="16px"
   height="16px"
   id="svg3144"
   version="1.1"
   inkscape:version="0.48.2 r9819"
   sodipodi:docname="drawing.svg">
  <defs
     id="defs3146">
    <linearGradient
       y2="57.480076"
       x2="19.414213"
       y1="19.5"
       x1="11.75"
       gradientUnits="userSpaceOnUse"
       id="linearGradient5540"
       xlink:href="#linearGradient6974-0-5"
       inkscape:collect="always" />
    <linearGradient
       inkscape:collect="always"
       id="linearGradient6974-0-5">
      <stop
         style="stop-color:#ffffff;stop-opacity:1;"
         offset="0"
         id="stop6976-9-3" />
      <stop
         style="stop-color:#ffffff;stop-opacity:0;"
         offset="1"
         id="stop6978-4-3" />
    </linearGradient>
    <filter
       id="filter4250-1-4-3"
       inkscape:label="Glow"
       inkscape:menu="Shadows and Glows"
       inkscape:menu-tooltip="Glow of object's own color at the edges"
       color-interpolation-filters="sRGB">
      <feGaussianBlur
         id="feGaussianBlur4252-8-6-7"
         stdDeviation="1.832734375 3.1346875000000001"
         result="result91" />
      <feComposite
         id="feComposite4254-5-3-43"
         in2="result91"
         in="SourceGraphic"
         operator="over" />
    </filter>
    <linearGradient
       id="linearGradient6992-4">
      <stop
         style="stop-color:#000000;stop-opacity:1;"
         offset="0"
         id="stop6994-8" />
      <stop
         style="stop-color:#000000;stop-opacity:0;"
         offset="1"
         id="stop6996-8" />
    </linearGradient>
    <linearGradient
       id="linearGradient3213">
      <stop
         style="stop-color:#000000;stop-opacity:1;"
         offset="0"
         id="stop3215" />
      <stop
         style="stop-color:#000000;stop-opacity:0;"
         offset="1"
         id="stop3217" />
    </linearGradient>
    <linearGradient
       y2="36.55806"
       x2="33.237865"
       y1="42.001678"
       x1="33.237865"
       gradientTransform="matrix(4,0,0,1,-108,0)"
       gradientUnits="userSpaceOnUse"
       id="linearGradient4716-4"
       xlink:href="#linearGradient7016-5"
       inkscape:collect="always" />
    <linearGradient
       id="linearGradient7016-5">
      <stop
         id="stop7018-5"
         offset="0"
         style="stop-color:#000000;stop-opacity:0;" />
      <stop
         style="stop-color:#000000;stop-opacity:1;"
         offset="0.5"
         id="stop7026-1" />
      <stop
         id="stop7022-7"
         offset="1"
         style="stop-color:#000000;stop-opacity:0" />
    </linearGradient>
    <linearGradient
       y2="251.3112"
       x2="237.77989"
       y1="251.3112"
       x1="81.428299"
       gradientTransform="translate(11.370628,145.47323)"
       gradientUnits="userSpaceOnUse"
       id="linearGradient6103"
       xlink:href="#linearGradient4567-1"
       inkscape:collect="always" />
    <linearGradient
       id="linearGradient4567-1">
      <stop
         style="stop-color:#007000;stop-opacity:1;"
         offset="0"
         id="stop4569-5" />
      <stop
         style="stop-color:#42d642;stop-opacity:1;"
         offset="1"
         id="stop4571-2" />
    </linearGradient>
    <linearGradient
       y2="251.3112"
       x2="237.77989"
       y1="251.3112"
       x1="81.428299"
       gradientTransform="matrix(0.0845511,0,0,0.0845511,-5.5766168,-13.045928)"
       gradientUnits="userSpaceOnUse"
       id="linearGradient3304"
       xlink:href="#linearGradient4567-1"
       inkscape:collect="always" />
    <radialGradient
       inkscape:collect="always"
       xlink:href="#linearGradient6992-4-7"
       id="radialGradient7033-9-1"
       gradientUnits="userSpaceOnUse"
       gradientTransform="matrix(2,0,0,0.9069901,24,3.6533406)"
       cx="6"
       cy="39.27903"
       fx="6"
       fy="39.27903"
       r="3" />
    <linearGradient
       id="linearGradient6992-4-7">
      <stop
         style="stop-color:#000000;stop-opacity:1;"
         offset="0"
         id="stop6994-8-4" />
      <stop
         style="stop-color:#000000;stop-opacity:0;"
         offset="1"
         id="stop6996-8-0" />
    </linearGradient>
    <radialGradient
       inkscape:collect="always"
       xlink:href="#linearGradient6992-4-7"
       id="radialGradient7035-2-9"
       gradientUnits="userSpaceOnUse"
       gradientTransform="matrix(2,0,0,0.9069901,-24,-74.904719)"
       cx="6"
       cy="39.27903"
       fx="6"
       fy="39.27903"
       r="3" />
    <linearGradient
       id="linearGradient3338">
      <stop
         style="stop-color:#000000;stop-opacity:1;"
         offset="0"
         id="stop3340" />
      <stop
         style="stop-color:#000000;stop-opacity:0;"
         offset="1"
         id="stop3342" />
    </linearGradient>
    <linearGradient
       y2="36.55806"
       x2="33.237865"
       y1="42.001678"
       x1="33.237865"
       gradientTransform="matrix(4,0,0,1,-108,0)"
       gradientUnits="userSpaceOnUse"
       id="linearGradient3228-4"
       xlink:href="#linearGradient7016-5-8"
       inkscape:collect="always" />
    <linearGradient
       id="linearGradient7016-5-8">
      <stop
         id="stop7018-5-8"
         offset="0"
         style="stop-color:#000000;stop-opacity:0;" />
      <stop
         style="stop-color:#000000;stop-opacity:1;"
         offset="0.5"
         id="stop7026-1-2" />
      <stop
         id="stop7022-7-4"
         offset="1"
         style="stop-color:#000000;stop-opacity:0" />
    </linearGradient>
    <linearGradient
       y2="36.55806"
       x2="33.237865"
       y1="42.001678"
       x1="33.237865"
       gradientTransform="matrix(4,0,0,1,-108,0)"
       gradientUnits="userSpaceOnUse"
       id="linearGradient3353"
       xlink:href="#linearGradient7016-5-8"
       inkscape:collect="always" />
    <linearGradient
       inkscape:collect="always"
       xlink:href="#linearGradient6974-0-5"
       id="linearGradient3396"
       gradientUnits="userSpaceOnUse"
       x1="11.75"
       y1="19.5"
       x2="19.414213"
       y2="57.480076" />
  </defs>
  <sodipodi:namedview
     id="base"
     pagecolor="#ffffff"
     bordercolor="#666666"
     borderopacity="1.0"
     inkscape:pageopacity="0.0"
     inkscape:pageshadow="2"
     inkscape:zoom="11.313708"
     inkscape:cx="6.5925134"
     inkscape:cy="7.1705584"
     inkscape:current-layer="layer2"
     showgrid="true"
     inkscape:grid-bbox="true"
     inkscape:document-units="px"
     inkscape:window-width="1366"
     inkscape:window-height="706"
     inkscape:window-x="-8"
     inkscape:window-y="-8"
     inkscape:window-maximized="1" />
  <metadata
     id="metadata3149">
    <rdf:RDF>
      <cc:Work
         rdf:about="">
        <dc:format>image/svg+xml</dc:format>
        <dc:type
           rdf:resource="http://purl.org/dc/dcmitype/StillImage" />
        <dc:title></dc:title>
      </cc:Work>
    </rdf:RDF>
  </metadata>
  <g
     inkscape:groupmode="layer"
     id="layer2"
     inkscape:label="Layer">
    <path
       style="fill:url(#linearGradient3304);fill-opacity:1;stroke:#fff0f0;stroke-width:0.08455197;stroke-opacity:0.7123288;display:inline"
       d="M 8.0136151,0.6670349 C 7.517343,0.6603318 7.0131685,1.3027177 4.7583832,2.5668271 0.24868745,5.0949518 1.5209968,2.9512539 1.4555424,8.1207253 1.3901914,13.290327 0.17143165,11.11521 4.6156829,13.75668 c 4.4442554,2.641311 1.9532653,2.609898 6.4628401,0.0818 4.509705,-2.52812 3.237388,-0.384409 3.30284,-5.553876 C 14.446717,3.1150168 15.665484,5.2874507 11.221225,2.6460855 8.9991803,1.325384 8.5098143,0.6732671 8.0136151,0.6670346 z M 7.9079252,3.1692088 c 0.093629,-0.0047 0.1891141,-0.00588 0.2852911,0 1.542976,0.036821 2.7400547,0.507365 3.5934897,1.4110022 0.853306,0.9036043 1.262871,2.1327322 1.225956,3.6885098 -0.03687,1.5515092 -0.502485,2.7603832 -1.397766,3.6225412 -0.89527,0.86216 -2.1138687,1.27312 -3.6567992,1.236504 C 6.419398,13.091236 5.2196396,12.623187 4.362052,11.719446 3.5086073,10.815844 3.1018017,9.587687 3.1386829,8.036226 3.1754532,6.4804474 3.6411247,5.2705564 4.536412,4.4083959 5.3797297,3.6002887 6.5028207,3.1877084 7.9079252,3.1692088 z M 8.0109285,4.9632737 C 7.3228692,4.9799811 6.7775073,5.2454745 6.375402,5.7586393 5.946463,6.3059123 5.7203386,7.0855441 5.6963264,8.0969846 5.6729275,9.104131 5.8618312,9.889438 6.2644223,10.456522 c 0.4025372,0.566966 0.9815885,0.861905 1.7359243,0.879867 0.7586087,0.0181 1.3519697,-0.248 1.7809147,-0.795369 C 10.2102,9.993788 10.436335,9.21775 10.460321,8.2105894 10.483847,7.1991485 10.294697,6.4075395 9.8921883,5.840525 9.4896753,5.273507 8.9095813,4.9812691 8.1509673,4.9632737 c -0.04728,-0.00401 -0.094163,-0.00373 -0.1400388,0 z"
       id="path3817-0-2-9-7"
       inkscape:export-filename="C:\Users\gpuser\Dropbox\Guardian Project Graphics\OSTel\OSTN_mini_1.PNG"
       inkscape:export-xdpi="72"
       inkscape:export-ydpi="72"
       inkscape:connector-curvature="0" />
  </g>
  <g
     inkscape:groupmode="layer"
     id="layer4"
     inkscape:label="Layer#1">
    <flowRoot
       xml:space="preserve"
       id="flowRoot3281"
       style="font-size:14px;font-style:normal;font-weight:normal;line-height:125%;letter-spacing:0px;word-spacing:0px;fill:#000000;fill-opacity:1;stroke:none;font-family:Sans"><flowRegion
         id="flowRegion3283"><rect
           id="rect3285"
           width="12.993087"
           height="14.672465"
           x="1.9445436"
           y="0.7972042"
           style="font-size:14px" /></flowRegion><flowPara
         id="flowPara3287"
         style="font-size:14px;font-style:normal;font-variant:normal;font-weight:bold;font-stretch:normal;font-family:Shruti;-inkscape-font-specification:Shruti Bold" /></flowRoot>  </g>
  <g
     id="layer1"
     inkscape:label="Layer 1"
     inkscape:groupmode="layer"
     style="display:inline">
    <path
       sodipodi:type="inkscape:offset"
       inkscape:radius="-0.98601711"
       inkscape:original="M 19.96875 3.5 C 15.828453 3.5 12.5 6.8284531 12.5 10.96875 L 12.5 17.5 L 11.5625 17.5 C 10.413064 17.5 9.5 18.413063 9.5 19.5625 L 9.5 33.4375 C 9.5 34.586936 10.413064 35.5 11.5625 35.5 L 36.4375 35.5 C 37.586936 35.5 38.500002 34.586937 38.5 33.4375 L 38.5 19.5625 C 38.5 18.413064 37.586935 17.5 36.4375 17.5 L 35.5 17.5 L 35.5 10.96875 C 35.5 6.8284531 32.171548 3.5 28.03125 3.5 L 19.96875 3.5 z M 19.96875 8.5 L 28.03125 8.5 C 29.495074 8.5 30.5 9.5049271 30.5 10.96875 L 30.5 17.5 L 17.5 17.5 L 17.5 10.96875 C 17.5 9.5049279 18.504928 8.5 19.96875 8.5 z "
       style="fill:none;stroke:url(#linearGradient3396);stroke-width:1.97397864;stroke-linecap:round;stroke-linejoin:miter;stroke-miterlimit:4;stroke-opacity:1;stroke-dasharray:none;display:inline;filter:url(#filter4250-1-4-3)"
       id="path6970-7-8"
       d="M 19.96875,4.5 C 16.356903,4.5 13.5,7.3569034 13.5,10.96875 l 0,6.53125 a 0.98611571,0.98611571 0 0 1 -1,1 l -0.9375,0 C 10.935231,18.5 10.5,18.93523 10.5,19.5625 l 0,13.875 c 0,0.627269 0.435231,1.0625 1.0625,1.0625 l 24.875,0 c 0.627269,0 1.062501,-0.435232 1.0625,-1.0625 l 0,-13.875 C 37.5,18.935232 37.064767,18.5 36.4375,18.5 l -0.9375,0 a 0.98611571,0.98611571 0 0 1 -1,-1 l 0,-6.53125 C 34.5,7.3569032 31.643098,4.5 28.03125,4.5 l -8.0625,0 z m 0,3 8.0625,0 c 0.957548,0 1.838666,0.369916 2.46875,1 0.630084,0.630084 1,1.511202 1,2.46875 l 0,6.53125 a 0.98611571,0.98611571 0 0 1 -1,1 l -13,0 a 0.98611571,0.98611571 0 0 1 -1,-1 l 0,-6.53125 c 0,-0.957548 0.369916,-1.8386662 1,-2.46875 0.630084,-0.6300838 1.511202,-1 2.46875,-1 z"
       transform="matrix(0.10914649,0,0,0.10914649,5.447779,5.8331948)"
       inkscape:export-filename="C:\Users\gpuser\Dropbox\Guardian Project Graphics\OSTel\OSTN_mini_2.PNG"
       inkscape:export-xdpi="72"
       inkscape:export-ydpi="72" />
    <g
       id="g7028-6-5"
       style="opacity:0.2;display:inline"
       transform="matrix(0.09149831,0,0,0.08561294,5.8188882,5.9374655)"
       inkscape:export-filename="C:\Users\gpuser\Dropbox\Guardian Project Graphics\OSTel\OSTN_mini_2.PNG"
       inkscape:export-xdpi="72"
       inkscape:export-ydpi="72">
      <rect
         y="36.55806"
         x="36"
         height="5.4419403"
         width="6"
         id="rect6982-1-5"
         style="fill:url(#radialGradient7033-9-1);fill-opacity:1;fill-rule:evenodd;stroke:none" />
      <rect
         transform="scale(-1,-1)"
         y="-42"
         x="-12"
         height="5.4419403"
         width="6"
         id="rect7000-4-1"
         style="fill:url(#radialGradient7035-2-9);fill-opacity:1;fill-rule:evenodd;stroke:none" />
      <rect
         y="36.55806"
         x="12"
         height="5.4419403"
         width="24"
         id="rect7008-2-7"
         style="fill:url(#linearGradient3353);fill-opacity:1;fill-rule:evenodd;stroke:none" />
    </g>
  </g>
</svg>
