<?xml version="1.0" encoding="UTF-8" standalone="no"?>
<!-- Created with Inkscape (http://www.inkscape.org/) -->

<svg
   xmlns:dc="http://purl.org/dc/elements/1.1/"
   xmlns:cc="http://creativecommons.org/ns#"
   xmlns:rdf="http://www.w3.org/1999/02/22-rdf-syntax-ns#"
   xmlns:svg="http://www.w3.org/2000/svg"
   xmlns="http://www.w3.org/2000/svg"
   xmlns:xlink="http://www.w3.org/1999/xlink"
   xmlns:sodipodi="http://sodipodi.sourceforge.net/DTD/sodipodi-0.dtd"
   xmlns:inkscape="http://www.inkscape.org/namespaces/inkscape"
   width="744.09448819"
   height="1052.3622047"
   id="svg8054"
   version="1.1"
   inkscape:version="0.48.2 r9819"
   sodipodi:docname="New document 7">
  <defs
     id="defs8056">
    <linearGradient
       id="linearGradient8715">
      <stop
         style="stop-color:#007600;stop-opacity:1;"
         offset="0"
         id="stop8717" />
      <stop
         style="stop-color:#44e452;stop-opacity:1;"
         offset="1"
         id="stop8719" />
    </linearGradient>
    <linearGradient
       id="linearGradient8685">
      <stop
         style="stop-color:#00ff00;stop-opacity:1;"
         offset="0"
         id="stop8687" />
      <stop
         style="stop-color:#00afff;stop-opacity:0;"
         offset="1"
         id="stop8689" />
    </linearGradient>
    <linearGradient
       inkscape:collect="always"
       xlink:href="#linearGradient8685"
       id="linearGradient8691"
       x1="177.62302"
       y1="216.13455"
       x2="183.17426"
       y2="167.14215"
       gradientUnits="userSpaceOnUse" />
    <linearGradient
       inkscape:collect="always"
       xlink:href="#linearGradient8685"
       id="linearGradient8693"
       x1="158.37492"
       y1="215.1244"
       x2="157.01801"
       y2="171.79567"
       gradientUnits="userSpaceOnUse" />
    <linearGradient
       inkscape:collect="always"
       xlink:href="#linearGradient8685"
       id="linearGradient8695"
       x1="147.26324"
       y1="212.59901"
       x2="146.61176"
       y2="172.30075"
       gradientUnits="userSpaceOnUse" />
    <linearGradient
       inkscape:collect="always"
       xlink:href="#linearGradient8685"
       id="linearGradient8697"
       x1="126.05466"
       y1="219.67009"
       x2="125.03989"
       y2="163.60661"
       gradientUnits="userSpaceOnUse" />
    <linearGradient
       inkscape:collect="always"
       xlink:href="#linearGradient8685"
       id="linearGradient8699"
       x1="97.705826"
       y1="216.59395"
       x2="97.770386"
       y2="161.08124"
       gradientUnits="userSpaceOnUse" />
    <linearGradient
       inkscape:collect="always"
       xlink:href="#linearGradient8685"
       id="linearGradient8701"
       x1="74.026894"
       y1="218.26268"
       x2="73.967239"
       y2="172.65231"
       gradientUnits="userSpaceOnUse" />
    <linearGradient
       inkscape:collect="always"
       xlink:href="#linearGradient8685"
       id="linearGradient8703"
       x1="52.003887"
       y1="216.74745"
       x2="52.81369"
       y2="175.33121"
       gradientUnits="userSpaceOnUse" />
    <linearGradient
       inkscape:collect="always"
       xlink:href="#linearGradient8685"
       id="linearGradient8705"
       x1="25.347242"
       y1="218.81345"
       x2="25.739923"
       y2="163.20937"
       gradientUnits="userSpaceOnUse" />
    <linearGradient
       inkscape:collect="always"
       xlink:href="#linearGradient8715"
       id="linearGradient8721"
       x1="207.28954"
       y1="315.41388"
       x2="208.68391"
       y2="282.74445"
       gradientUnits="userSpaceOnUse" />
    <linearGradient
       inkscape:collect="always"
       xlink:href="#linearGradient8715"
       id="linearGradient8723"
       x1="168.78288"
       y1="310.01859"
       x2="167.39082"
       y2="283.24951"
       gradientUnits="userSpaceOnUse" />
    <linearGradient
       inkscape:collect="always"
       xlink:href="#linearGradient8715"
       id="linearGradient8725"
       x1="134.16452"
       y1="310.89859"
       x2="134.54547"
       y2="281.09909"
       gradientUnits="userSpaceOnUse" />
    <linearGradient
       inkscape:collect="always"
       xlink:href="#linearGradient8715"
       id="linearGradient8727"
       x1="102.34473"
       y1="308.8783"
       x2="103.5201"
       y2="272.73547"
       gradientUnits="userSpaceOnUse" />
  </defs>
  <sodipodi:namedview
     id="base"
     pagecolor="#ffffff"
     bordercolor="#666666"
     borderopacity="1.0"
     inkscape:pageopacity="0.0"
     inkscape:pageshadow="2"
     inkscape:zoom="0.7"
     inkscape:cx="152.14286"
     inkscape:cy="832.85339"
     inkscape:document-units="px"
     inkscape:current-layer="text8070"
     showgrid="false"
     inkscape:window-width="1366"
     inkscape:window-height="706"
     inkscape:window-x="-8"
     inkscape:window-y="-8"
     inkscape:window-maximized="1" />
  <metadata
     id="metadata8059">
    <rdf:RDF>
      <cc:Work
         rdf:about="">
        <dc:format>image/svg+xml</dc:format>
        <dc:type
           rdf:resource="http://purl.org/dc/dcmitype/StillImage" />
        <dc:title></dc:title>
      </cc:Work>
    </rdf:RDF>
  </metadata>
  <g
     inkscape:label="Layer 1"
     inkscape:groupmode="layer"
     id="layer1">
    <g
       style="font-size:10px;font-style:normal;font-weight:normal;line-height:125%;letter-spacing:0px;word-spacing:0px;fill:#000000;fill-opacity:1;stroke:none;font-family:Sans"
       id="text8070"
       transform="translate(11.428571,95.714286)">
      <path
         d="m 64.325335,-68.087539 -17.089844,0 0,7.683594 15.722656,0 0,7.765625 -15.722656,0 0,17.5 -10.171875,0 0,-40.714844 27.261719,0 z"
         style="font-style:normal;fill:#0646d2;fill-opacity:1;font-family:Tahoma;-inkscape-font-specification:Tahoma Bold"
         id="path8085"
         inkscape:connector-curvature="0" />
      <path
         d="m 89.727679,-56.79457 -0.792969,0 c -0.364607,-0.127583 -0.893252,-0.223286 -1.585938,-0.287109 -0.692729,-0.06378 -1.458353,-0.09568 -2.296875,-0.0957 -1.002622,2.2e-5 -2.055356,0.145856 -3.158203,0.4375 -1.10288,0.291688 -2.173842,0.638042 -3.21289,1.039063 l 0,20.5625 -9.570313,0 0,-30.707031 9.570313,0 0,4.402343 c 0.437486,-0.401015 1.043605,-0.906873 1.818359,-1.517578 0.774724,-0.610648 1.481103,-1.098278 2.119141,-1.46289 0.69269,-0.419241 1.49933,-0.779267 2.419921,-1.080078 0.920553,-0.300751 1.790995,-0.451142 2.611329,-0.451172 0.309873,3e-5 0.656227,0.0091 1.039062,0.02734 0.382789,0.01826 0.729143,0.0456 1.039063,0.08203 z"
         style="font-style:normal;fill:#0646d2;fill-opacity:1;font-family:Tahoma;-inkscape-font-specification:Tahoma Bold"
         id="path8087"
         inkscape:connector-curvature="0" />
      <path
         d="m 109.1144,-34.318008 c -5.79689,0 -10.240246,-1.385416 -13.330081,-4.15625 -3.089847,-2.770827 -4.634767,-6.717437 -4.634765,-11.839843 -2e-6,-5.013001 1.440101,-9.014299 4.320312,-12.003907 2.8802,-2.989553 6.908844,-4.484343 12.085934,-4.484375 4.70311,3.2e-5 8.23956,1.266958 10.60938,3.800782 2.36976,2.533879 3.55465,6.16148 3.55469,10.882812 l 0,3.445313 -20.97266,0 c 0.0911,1.421887 0.39192,2.611339 0.90234,3.568359 0.51041,0.95704 1.18489,1.718107 2.02344,2.283203 0.8203,0.565111 1.77733,0.97071 2.8711,1.216797 1.09373,0.2461 2.28774,0.369147 3.58203,0.369141 1.11195,6e-6 2.2057,-0.123041 3.28125,-0.369141 1.07549,-0.246087 2.05987,-0.569654 2.95312,-0.970703 0.78383,-0.346347 1.50844,-0.720044 2.17383,-1.121094 0.66533,-0.401033 1.20765,-0.756501 1.62695,-1.066406 l 1.01172,0 0,7.902344 c -0.78388,0.309897 -1.49938,0.597006 -2.14648,0.861328 -0.64717,0.264323 -1.53584,0.533203 -2.66602,0.80664 -1.03909,0.273438 -2.11005,0.48763 -3.21289,0.642579 -1.10289,0.154947 -2.44729,0.232421 -4.0332,0.232421 z m 3.17187,-20.125 c -0.0547,-2.023416 -0.52411,-3.563779 -1.4082,-4.621093 -0.88414,-1.057267 -2.23765,-1.585912 -4.06055,-1.585938 -1.85939,2.6e-5 -3.31316,0.556015 -4.36133,1.667969 -1.04818,1.112002 -1.62696,2.625021 -1.73632,4.539062 z"
         style="font-style:normal;fill:#0646d2;fill-opacity:1;font-family:Tahoma;-inkscape-font-specification:Tahoma Bold"
         id="path8089"
         inkscape:connector-curvature="0" />
      <path
         d="m 142.3644,-34.318008 c -5.79689,0 -10.24025,-1.385416 -13.33008,-4.15625 -3.08985,-2.770827 -4.63477,-6.717437 -4.63477,-11.839843 0,-5.013001 1.4401,-9.014299 4.32032,-12.003907 2.88019,-2.989553 6.90884,-4.484343 12.08593,-4.484375 4.70311,3.2e-5 8.23956,1.266958 10.60938,3.800782 2.36976,2.533879 3.55465,6.16148 3.55469,10.882812 l 0,3.445313 -20.97266,0 c 0.0911,1.421887 0.39191,2.611339 0.90234,3.568359 0.51041,0.95704 1.18489,1.718107 2.02344,2.283203 0.8203,0.565111 1.77733,0.97071 2.87109,1.216797 1.09374,0.2461 2.28775,0.369147 3.58204,0.369141 1.11195,6e-6 2.2057,-0.123041 3.28125,-0.369141 1.07549,-0.246087 2.05987,-0.569654 2.95312,-0.970703 0.78383,-0.346347 1.50844,-0.720044 2.17383,-1.121094 0.66533,-0.401033 1.20765,-0.756501 1.62695,-1.066406 l 1.01172,0 0,7.902344 c -0.78388,0.309897 -1.49938,0.597006 -2.14648,0.861328 -0.64717,0.264323 -1.53584,0.533203 -2.66602,0.80664 -1.03909,0.273438 -2.11005,0.48763 -3.21289,0.642579 -1.10289,0.154947 -2.44729,0.232421 -4.0332,0.232421 z m 3.17187,-20.125 c -0.0547,-2.023416 -0.52411,-3.563779 -1.4082,-4.621093 -0.88414,-1.057267 -2.23765,-1.585912 -4.06055,-1.585938 -1.85939,2.6e-5 -3.31316,0.556015 -4.36133,1.667969 -1.04819,1.112002 -1.62696,2.625021 -1.73632,4.539062 z"
         style="font-style:normal;fill:#0646d2;fill-opacity:1;font-family:Tahoma;-inkscape-font-specification:Tahoma Bold"
         id="path8091"
         inkscape:connector-curvature="0" />
      <path
         d="m 180.20815,-50.724258 c -3e-5,-3.062481 -0.46487,-5.249979 -1.39453,-6.5625 -0.92971,-1.312476 -2.3607,-1.968726 -4.29297,-1.96875 -0.85679,2.4e-5 -1.709,0.136743 -2.55664,0.410157 -0.84768,0.273461 -1.68166,0.683616 -2.50196,1.230468 l 0,15.421875 c 0.63801,0.255216 1.28059,0.428392 1.92774,0.519532 0.64712,0.09115 1.28969,0.136725 1.92773,0.136718 2.31509,7e-6 4.0423,-0.765617 5.18164,-2.296875 1.1393,-1.531239 1.70896,-3.828112 1.70899,-6.890625 z m 9.78906,-0.191406 c -3e-5,4.885428 -1.23962,8.836596 -3.71875,11.853516 -2.4792,3.016928 -5.55081,4.52539 -9.21484,4.52539 -1.53127,0 -2.862,-0.173177 -3.99219,-0.519531 -1.13023,-0.346354 -2.33335,-0.884114 -3.60938,-1.613281 l -0.41015,1.53125 -9.16016,0 0,-42.546875 9.57031,0 0,15.039062 c 1.40363,-1.203096 2.83462,-2.178355 4.29297,-2.925781 1.45832,-0.747365 3.14451,-1.121062 5.0586,-1.121094 3.57289,3.2e-5 6.33004,1.394562 8.27148,4.183594 1.94137,2.789087 2.91208,6.653667 2.91211,11.59375 z"
         style="font-style:normal;fill:#0646d2;fill-opacity:1;font-family:Tahoma;-inkscape-font-specification:Tahoma Bold"
         id="path8093"
         inkscape:connector-curvature="0" />
      <path
         d="m 204.89955,-35.13832 -9.57031,0 0,-30.707031 9.57031,0 z m 0.27344,-35.082031 -10.11719,0 0,-7.464844 10.11719,0 z"
         style="font-style:normal;fill:#0646d2;fill-opacity:1;font-family:Tahoma;-inkscape-font-specification:Tahoma Bold"
         id="path8095"
         inkscape:connector-curvature="0" />
      <path
         d="m 232.89955,-56.79457 -0.79297,0 c -0.3646,-0.127583 -0.89325,-0.223286 -1.58593,-0.287109 -0.69273,-0.06378 -1.45836,-0.09568 -2.29688,-0.0957 -1.00262,2.2e-5 -2.05535,0.145856 -3.1582,0.4375 -1.10288,0.291688 -2.17384,0.638042 -3.21289,1.039063 l 0,20.5625 -9.57031,0 0,-30.707031 9.57031,0 0,4.402343 c 0.43748,-0.401015 1.0436,-0.906873 1.81836,-1.517578 0.77472,-0.610648 1.4811,-1.098278 2.11914,-1.46289 0.69269,-0.419241 1.49933,-0.779267 2.41992,-1.080078 0.92055,-0.300751 1.79099,-0.451142 2.61133,-0.451172 0.30987,3e-5 0.65622,0.0091 1.03906,0.02734 0.38279,0.01826 0.72914,0.0456 1.03906,0.08203 z"
         style="font-style:normal;fill:#0646d2;fill-opacity:1;font-family:Tahoma;-inkscape-font-specification:Tahoma Bold"
         id="path8097"
         inkscape:connector-curvature="0" />
      <path
         d="m 264.48158,-35.13832 -9.57031,0 0,-3.199219 c -0.61981,0.510419 -1.32619,1.057294 -2.11914,1.640625 -0.79299,0.583334 -1.49025,1.020834 -2.0918,1.3125 -0.76564,0.364583 -1.52215,0.638021 -2.26953,0.820313 -0.74741,0.182291 -1.64064,0.273436 -2.67968,0.273437 -3.50001,-10e-7 -6.27084,-1.449218 -8.3125,-4.347656 -2.04167,-2.898431 -3.06251,-6.772125 -3.0625,-11.621094 -10e-6,-2.67967 0.34635,-5.003886 1.03906,-6.972656 0.6927,-1.968726 1.64973,-3.682266 2.87109,-5.140625 1.11197,-1.330701 2.46093,-2.383434 4.04688,-3.158203 1.58592,-0.774709 3.263,-1.162078 5.03125,-1.16211 1.60415,3.2e-5 2.9212,0.168652 3.95117,0.50586 1.02993,0.33727 2.22849,0.861358 3.5957,1.572265 l 0,-13.070312 9.57031,0 z m -9.57031,-8.476563 0,-15.066406 c -0.47398,-0.236955 -1.09377,-0.432919 -1.85937,-0.58789 -0.76565,-0.154924 -1.4219,-0.232398 -1.96875,-0.232422 -2.29689,2.4e-5 -4.02411,0.802107 -5.18164,2.40625 -1.15757,1.604187 -1.73634,3.846372 -1.73633,6.726562 -1e-5,3.026054 0.46027,5.213552 1.38086,6.5625 0.92056,1.348966 2.41079,2.023444 4.4707,2.023438 0.83852,6e-6 1.68618,-0.164056 2.54297,-0.492188 0.85675,-0.328117 1.6406,-0.774732 2.35156,-1.339844 z"
         style="font-style:normal;fill:#0646d2;fill-opacity:1;font-family:Tahoma;-inkscape-font-specification:Tahoma Bold"
         id="path8099"
         inkscape:connector-curvature="0" />
      <path
         d="m 319.19643,-60.923476 -5.03125,0 c -0.0729,-1.16664 -0.37829,-2.223931 -0.91602,-3.171875 -0.53779,-0.947887 -1.24872,-1.754527 -2.13281,-2.419922 -0.88414,-0.665333 -1.91409,-1.175749 -3.08984,-1.53125 -1.17581,-0.355436 -2.43818,-0.53317 -3.78711,-0.533203 -1.8594,3.3e-5 -3.54104,0.3236 -5.04493,0.970703 -1.50391,0.647167 -2.78451,1.604197 -3.84179,2.871094 -1.0573,1.266955 -1.87306,2.825547 -2.44727,4.675781 -0.57422,1.850283 -0.86133,3.978536 -0.86133,6.384765 0,2.406267 0.28255,4.539077 0.84766,6.398438 0.5651,1.859385 1.37629,3.422535 2.43359,4.689453 1.05728,1.266933 2.32421,2.233078 3.80079,2.898438 1.47654,0.665368 3.13539,0.99805 4.97656,0.998046 1.44008,4e-6 2.75714,-0.17773 3.95117,-0.533203 1.19399,-0.355464 2.22393,-0.884109 3.08984,-1.585937 0.86586,-0.701817 1.55857,-1.558587 2.07813,-2.570313 0.5195,-1.011709 0.83395,-2.173817 0.94336,-3.486328 l 5.03125,0 c -0.18233,1.96876 -0.67907,3.718758 -1.49024,5.25 -0.81123,1.531255 -1.87308,2.825525 -3.18554,3.882813 -1.31253,1.057293 -2.84378,1.863933 -4.59375,2.419922 -1.75003,0.555989 -3.65497,0.833983 -5.71485,0.833984 -2.64324,-10e-7 -5.03126,-0.451172 -7.16406,-1.353516 -2.13282,-0.902342 -3.94662,-2.187497 -5.44141,-3.855468 -1.49479,-1.667963 -2.64323,-3.682284 -3.44531,-6.042969 -0.80208,-2.360664 -1.20313,-5.008448 -1.20312,-7.94336 -10e-6,-2.916645 0.40559,-5.555314 1.21679,-7.916015 0.8112,-2.360649 1.96875,-4.374969 3.47266,-6.042969 1.5039,-1.667935 3.3177,-2.95309 5.44141,-3.855469 2.12368,-0.902306 4.49803,-1.353478 7.12304,-1.353515 1.9505,3.7e-5 3.7962,0.282589 5.53711,0.847656 1.74086,0.56514 3.28122,1.367223 4.6211,2.40625 1.33981,1.039096 2.43356,2.29235 3.28125,3.759766 0.84762,1.467477 1.36259,3.103543 1.54492,4.908203 z"
         style="font-weight:normal;-inkscape-font-specification:Gautami"
         id="path8101"
         inkscape:connector-curvature="0" />
      <path
         d="m 342.32924,-42.165664 0,-5.960937 -3.30859,0 c -6.90887,1.3e-5 -10.36329,1.877615 -10.36328,5.632812 -1e-5,1.367194 0.51496,2.41537 1.54492,3.144531 1.02994,0.729171 2.39256,1.093753 4.08789,1.09375 0.78384,3e-6 1.56313,-0.09114 2.33789,-0.273437 0.77472,-0.182288 1.513,-0.442054 2.21484,-0.779297 0.70181,-0.337235 1.34894,-0.747391 1.94141,-1.230469 0.59243,-0.483067 1.1074,-1.025384 1.54492,-1.626953 z m 0,4.320313 c -2.49741,2.242188 -5.63283,3.36328 -9.40625,3.363281 -1.29428,-10e-7 -2.49285,-0.18685 -3.5957,-0.560547 -1.10287,-0.373698 -2.06446,-0.897786 -2.88477,-1.572266 -0.82031,-0.674477 -1.46289,-1.485674 -1.92773,-2.433593 -0.46485,-0.947912 -0.69727,-2.005203 -0.69727,-3.171875 0,-6.27082 5.38671,-9.406234 16.16016,-9.40625 l 2.35156,0 c -2e-5,-1.14842 -0.0365,-2.169253 -0.10937,-3.0625 -0.0729,-0.893209 -0.30992,-1.645161 -0.71094,-2.25586 -0.40106,-0.610654 -1.03908,-1.075498 -1.91406,-1.394531 -0.87502,-0.318987 -2.10549,-0.478492 -3.69141,-0.478516 -4.22918,2.4e-5 -6.41668,1.522158 -6.5625,4.566407 l -4.8125,0 c 0.34635,-5.541642 4.22916,-8.312473 11.64844,-8.3125 1.67706,2.7e-5 3.19008,0.14586 4.53906,0.4375 1.34894,0.291693 2.49282,0.820338 3.43164,1.585937 0.93878,0.76565 1.66339,1.804711 2.17383,3.117188 0.51039,1.312521 0.7656,2.980488 0.76562,5.003906 l 0,17.28125 -4.75781,0 z"
         style="font-weight:normal;-inkscape-font-specification:Gautami"
         id="path8103"
         inkscape:connector-curvature="0" />
      <path
         d="m 390.31752,-35.13832 -4.8125,0 0,-17.28125 c -3e-5,-1.13019 -0.0775,-2.08722 -0.23242,-2.871094 -0.15498,-0.783833 -0.39652,-1.421853 -0.72461,-1.914062 -0.32816,-0.492165 -0.75199,-0.847634 -1.27148,-1.066407 -0.51957,-0.218726 -1.15303,-0.328101 -1.90039,-0.328125 -2.33337,2.4e-5 -4.62112,1.421897 -6.86329,4.265625 l 0,19.195313 -4.67578,0 0,-17.28125 c -2e-5,-1.13019 -0.0775,-2.08722 -0.23242,-2.871094 -0.15497,-0.783833 -0.40106,-1.421853 -0.73828,-1.914062 -0.33726,-0.492165 -0.7702,-0.847634 -1.29883,-1.066407 -0.52866,-0.218726 -1.16668,-0.328101 -1.91406,-0.328125 -2.29689,2.4e-5 -4.56642,1.421897 -6.80859,4.265625 l 0,19.195313 -4.73047,0 0,-26.769531 4.73047,0 0,3.390625 c 2.29686,-2.697891 4.81248,-4.046848 7.54687,-4.046875 3.90102,2.7e-5 6.39842,1.622421 7.49219,4.867187 0.91143,-1.075497 1.7363,-1.932267 2.47461,-2.570312 0.73825,-0.637995 1.4264,-1.130182 2.06445,-1.476563 0.63799,-0.346327 1.24867,-0.569634 1.83203,-0.669922 0.5833,-0.100233 1.18487,-0.150363 1.80469,-0.15039 5.50517,2.7e-5 8.25777,3.299503 8.25781,9.898437 z"
         style="font-weight:normal;-inkscape-font-specification:Gautami"
         id="path8105"
         inkscape:connector-curvature="0" />
      <path
         d="m 401.93862,-58.735976 c 1.07551,-1.294246 2.25129,-2.255834 3.52734,-2.884766 1.27603,-0.628879 2.65233,-0.943332 4.12891,-0.943359 1.76821,2.7e-5 3.33591,0.328152 4.70312,0.984375 1.36717,0.656275 2.52016,1.590519 3.45898,2.802734 0.93878,1.212262 1.65428,2.666037 2.14649,4.361328 0.49216,1.69533 0.73825,3.582047 0.73828,5.660156 -3e-5,2.169283 -0.28714,4.133473 -0.86133,5.892579 -0.57424,1.75912 -1.36721,3.258468 -2.3789,4.498046 -1.01175,1.239586 -2.21031,2.196616 -3.59571,2.871094 -1.38543,0.674479 -2.88934,1.011718 -4.51172,1.011719 -1.47657,-10e-7 -2.82097,-0.223308 -4.0332,-0.669922 -1.21225,-0.446614 -2.31967,-1.134764 -3.32226,-2.064453 l 0,12.359375 -4.73047,0 0,-37.050781 4.73047,0 z m 0,17.226562 c 2.07811,2.169275 4.43878,3.253909 7.08203,3.253906 1.00258,3e-6 1.9186,-0.223304 2.74804,-0.669921 0.82941,-0.446611 1.53123,-1.107417 2.10547,-1.982422 0.5742,-0.874994 1.02081,-1.968743 1.33985,-3.28125 0.31898,-1.31249 0.47849,-2.834624 0.47851,-4.566407 -2e-5,-3.281233 -0.56968,-5.778626 -1.70898,-7.492187 -1.13935,-1.713519 -2.72984,-2.570289 -4.77149,-2.570313 -2.66147,2.4e-5 -5.08595,1.531273 -7.27343,4.59375 z"
         style="font-weight:normal;-inkscape-font-specification:Gautami"
         id="path8107"
         inkscape:connector-curvature="0" />
      <flowRoot
         xml:space="preserve"
         id="flowRoot8617"
         style="font-size:10px;font-style:normal;font-variant:normal;font-weight:normal;font-stretch:normal;line-height:125%;letter-spacing:0px;word-spacing:0px;fill:#000000;fill-opacity:1;stroke:none;font-family:Segoe UI;-inkscape-font-specification:Segoe UI"
         transform="translate(37.142858,-118.57143)"><flowRegion
           id="flowRegion8619"><rect
             id="rect8621"
             width="815.71429"
             height="190"
             x="-221.42857"
             y="98.076469" /></flowRegion><flowPara
           id="flowPara8623"
           style="font-size:20px;font-style:normal;font-variant:normal;font-weight:bold;font-stretch:normal;text-align:center;text-anchor:middle;font-family:Segoe UI;-inkscape-font-specification:Segoe UI Bold">A RightsCon:Rio Mobile Technology day </flowPara><flowPara
           style="font-size:20px;font-style:normal;font-variant:normal;font-weight:bold;font-stretch:normal;text-align:center;text-anchor:middle;font-family:Segoe UI;-inkscape-font-specification:Segoe UI Bold"
           id="flowPara8625">on Freedom, Privacy &amp; Open-source software</flowPara></flowRoot>      <g
         transform="translate(90,-114.28572)"
         style="font-variant:normal;font-stretch:normal;fill:#000000;font-family:Segoe UI;-inkscape-font-specification:Segoe UI"
         id="flowRoot8627">
        <path
           d="m 18.78125,214.36861 3.140625,0 0,-16.35938 17.015625,0 0,-2.85937 -17.015625,0 0,-12.46875 18.703125,0 0,-2.85938 -21.84375,0 z"
           style="font-size:48px;fill:url(#linearGradient8705);fill-opacity:1;font-family:Dotum;-inkscape-font-specification:Dotum"
           id="path8669"
           inkscape:connector-curvature="0" />
        <path
           d="m 46.953125,214.36861 2.859375,0 0,-13.82813 c -7e-6,-2.87498 0.624993,-5.06248 1.875,-6.5625 1.21874,-1.46873 2.968738,-2.2031 5.25,-2.20312 l 0.421875,0 0,-2.95313 -0.328125,0 c -1.656262,3e-5 -3.093761,0.39065 -4.3125,1.17188 -1.281258,0.84377 -2.265632,2.10939 -2.953125,3.79687 l 0,-4.35937 -2.8125,0 z"
           style="font-size:48px;fill:url(#linearGradient8703);fill-opacity:1;font-family:Dotum;-inkscape-font-specification:Dotum"
           id="path8671"
           inkscape:connector-curvature="0" />
        <path
           d="m 64.296875,200.11861 c -0.03126,-2.56249 0.749993,-4.71873 2.34375,-6.46875 1.40624,-1.53123 3.203114,-2.29686 5.390625,-2.29688 2.156234,2e-5 3.906233,0.76565 5.25,2.29688 1.49998,1.75002 2.249979,3.90626 2.25,6.46875 z m 0,2.29687 18.234375,0 0,-0.9375 c -2.4e-5,-3.99998 -0.937523,-7.12498 -2.8125,-9.375 -1.875019,-2.18747 -4.406267,-3.28122 -7.59375,-3.28125 -3.37501,3e-5 -6.015633,1.14065 -7.921875,3.42188 -1.937504,2.34377 -2.906253,5.60939 -2.90625,9.79687 -3e-6,4.09376 0.953121,7.29688 2.859375,9.60938 1.906242,2.28125 4.515615,3.42187 7.828125,3.42187 2.749984,0 5.046856,-0.78125 6.890625,-2.34375 1.874978,-1.53125 2.968727,-3.54687 3.28125,-6.04687 l -2.859375,0 c -0.281271,1.78125 -1.078145,3.20313 -2.390625,4.26562 -1.281267,1.03125 -2.843766,1.54688 -4.6875,1.54688 -2.375011,0 -4.28126,-0.89063 -5.71875,-2.67188 -1.468757,-1.81249 -2.203131,-4.28124 -2.203125,-7.40625 z"
           style="font-size:48px;fill:url(#linearGradient8701);fill-opacity:1;font-family:Dotum;-inkscape-font-specification:Dotum"
           id="path8673"
           inkscape:connector-curvature="0" />
        <path
           d="m 91.109375,200.11861 c -0.03126,-2.56249 0.749993,-4.71873 2.34375,-6.46875 1.40624,-1.53123 3.203114,-2.29686 5.390625,-2.29688 2.15623,2e-5 3.90623,0.76565 5.25,2.29688 1.49998,1.75002 2.24998,3.90626 2.25,6.46875 z m 0,2.29687 18.234375,0 0,-0.9375 c -2e-5,-3.99998 -0.93752,-7.12498 -2.8125,-9.375 -1.87502,-2.18747 -4.40627,-3.28122 -7.59375,-3.28125 -3.37501,3e-5 -6.015633,1.14065 -7.921875,3.42188 -1.937504,2.34377 -2.906253,5.60939 -2.90625,9.79687 -3e-6,4.09376 0.953121,7.29688 2.859375,9.60938 1.906242,2.28125 4.515615,3.42187 7.828125,3.42187 2.749985,0 5.046855,-0.78125 6.890625,-2.34375 1.87498,-1.53125 2.96873,-3.54687 3.28125,-6.04687 l -2.85937,0 c -0.28128,1.78125 -1.07815,3.20313 -2.39063,4.26562 -1.28127,1.03125 -2.84377,1.54688 -4.6875,1.54688 -2.375011,0 -4.28126,-0.89063 -5.71875,-2.67188 -1.468757,-1.81249 -2.203131,-4.28124 -2.203125,-7.40625 z"
           style="font-size:48px;fill:url(#linearGradient8699);fill-opacity:1;font-family:Dotum;-inkscape-font-specification:Dotum"
           id="path8675"
           inkscape:connector-curvature="0" />
        <path
           d="m 115.95313,214.36861 2.85937,0 0,-4.21875 c 1.06249,1.65625 2.31249,2.89062 3.75,3.70312 1.40624,0.8125 3.03124,1.21875 4.875,1.21875 3.34373,0 6.0156,-1.375 8.01562,-4.125 1.81248,-2.46874 2.71873,-5.46874 2.71875,-9 -2e-5,-3.56248 -0.90627,-6.5781 -2.71875,-9.04687 -2.00002,-2.71873 -4.67189,-4.0781 -8.01562,-4.07813 -1.87501,3e-5 -3.56251,0.43753 -5.0625,1.3125 -1.46876,0.81253 -2.65626,2.00002 -3.5625,3.5625 l 0,-13.875 -2.85937,0 z m 10.96875,-23.01563 c 2.59373,2e-5 4.65623,1.09377 6.18749,3.28125 1.40623,1.96877 2.10936,4.39064 2.10938,7.26563 -2e-5,2.84376 -0.70315,5.26563 -2.10938,7.26562 -1.53126,2.21875 -3.59376,3.32813 -6.18749,3.32813 -2.65627,0 -4.75002,-1.10938 -6.28125,-3.32813 -1.37501,-1.99999 -2.06251,-4.42186 -2.0625,-7.26562 -1e-5,-2.87499 0.68749,-5.29686 2.0625,-7.26563 1.53123,-2.18748 3.62498,-3.28123 6.28125,-3.28125 z"
           style="font-size:48px;fill:url(#linearGradient8697);fill-opacity:1;font-family:Dotum;-inkscape-font-specification:Dotum"
           id="path8677"
           inkscape:connector-curvature="0" />
        <path
           d="m 144.875,214.36861 2.85937,0 0,-24.9375 -2.85937,0 z m 0,-30.1875 2.85937,0 0,-4.35938 -2.85937,0 z"
           style="font-size:48px;fill:url(#linearGradient8695);fill-opacity:1;font-family:Dotum;-inkscape-font-specification:Dotum"
           id="path8679"
           inkscape:connector-curvature="0" />
        <path
           d="m 155.70312,214.36861 2.85938,0 0,-13.82813 c -1e-5,-2.87498 0.62499,-5.06248 1.875,-6.5625 1.21874,-1.46873 2.96874,-2.2031 5.25,-2.20312 l 0.42187,0 0,-2.95313 -0.32812,0 c -1.65626,3e-5 -3.09376,0.39065 -4.3125,1.17188 -1.28126,0.84377 -2.26563,2.10939 -2.95313,3.79687 l 0,-4.35937 -2.8125,0 z"
           style="font-size:48px;fill:url(#linearGradient8693);fill-opacity:1;font-family:Dotum;-inkscape-font-specification:Dotum"
           id="path8681"
           inkscape:connector-curvature="0" />
        <path
           d="m 192.26562,179.82173 -2.85937,0 0,13.64063 c -0.96877,-1.40623 -2.18752,-2.56248 -3.65625,-3.46875 -1.43752,-0.78123 -3.07814,-1.17185 -4.92188,-1.17188 -3.40626,3e-5 -6.10938,1.3594 -8.10937,4.07813 -1.78125,2.46877 -2.67188,5.48439 -2.67188,9.04687 0,3.53126 0.89063,6.53126 2.67188,9 1.99999,2.75 4.70311,4.125 8.10937,4.125 1.81249,0 3.49999,-0.46875 5.0625,-1.40625 1.49998,-0.875 2.67186,-2.0625 3.51563,-3.5625 l 0,4.26563 2.85937,0 z m -10.96875,11.53125 c 2.62499,2e-5 4.71874,1.09377 6.28125,3.28125 1.40623,1.96877 2.10936,4.39064 2.10938,7.26563 -2e-5,2.84376 -0.70315,5.26563 -2.10938,7.26562 -1.56251,2.21875 -3.65626,3.32813 -6.28125,3.32813 -2.62501,0 -4.70313,-1.10938 -6.23437,-3.32813 -1.37501,-1.99999 -2.06251,-4.42186 -2.0625,-7.26562 -1e-5,-2.87499 0.68749,-5.29686 2.0625,-7.26563 1.53124,-2.18748 3.60936,-3.28123 6.23437,-3.28125 z"
           style="font-size:48px;fill:url(#linearGradient8691);fill-opacity:1;font-family:Dotum;-inkscape-font-specification:Dotum"
           id="path8683"
           inkscape:connector-curvature="0" />
      </g>
      <g
         transform="translate(42.129047,-164.63235)"
         style="font-variant:normal;font-stretch:normal;fill:#000000;stroke:none;font-family:Segoe UI;-inkscape-font-specification:Segoe UI"
         id="flowRoot8635">
        <path
           d="m 114.56848,297.35298 c -0.25003,2.93751 -1.2969,5.23438 -3.14062,6.89063 -1.84378,1.6875 -4.2969,2.53125 -7.35938,2.53125 -3.68751,0 -6.59376,-1.34375 -8.718749,-4.03125 -2.125007,-2.74999 -3.187506,-6.57812 -3.1875,-11.48438 -6e-6,-4.87498 1.046868,-8.6406 3.140625,-11.29687 2.093739,-2.59372 4.999984,-3.8906 8.718754,-3.89063 2.87498,3e-5 5.21872,0.71878 7.03125,2.15625 1.81247,1.43753 2.87497,3.4219 3.1875,5.95313 l 3.14062,0 c -0.21878,-3.31248 -1.51565,-5.96872 -3.89062,-7.96875 -2.40628,-1.99997 -5.56253,-2.99997 -9.46875,-3 -4.656267,3e-5 -8.328139,1.57816 -11.015629,4.73437 -2.750004,3.21878 -4.125003,7.6719 -4.125,13.35938 -3e-6,5.71876 1.359371,10.20313 4.078125,13.45312 2.65624,3.25 6.312487,4.875 10.968754,4.875 4.06247,0 7.29685,-1.09375 9.70312,-3.28125 2.40622,-2.18749 3.74997,-5.18749 4.03125,-9 z"
           style="font-size:48px;fill:url(#linearGradient8727);fill-opacity:1;stroke:none;font-family:Dotum;-inkscape-font-specification:Dotum"
           id="path8660"
           inkscape:connector-curvature="0" />
        <path
           d="m 140.53723,305.08736 0,0.375 c -2e-5,1.125 0.29686,1.98437 0.89063,2.57812 0.59372,0.59375 1.48435,0.89063 2.67187,0.89063 0.24998,0 0.5156,-0.0156 0.79688,-0.0469 0.40622,-0.0625 0.8281,-0.125 1.26562,-0.1875 l 0,-2.15625 -1.03125,0 c -0.81252,0 -1.34377,-0.1875 -1.59375,-0.5625 -0.15627,-0.25 -0.2344,-0.81249 -0.23437,-1.6875 l 0,-13.59375 c -3e-5,-2.49998 -0.78128,-4.3906 -2.34375,-5.67187 -1.53127,-1.24998 -3.78127,-1.87498 -6.75,-1.875 -3.03126,2e-5 -5.43751,0.7344 -7.21875,2.20312 -1.75001,1.43752 -2.64063,3.39065 -2.67188,5.85938 l 2.85938,0 c 0.0625,-1.84373 0.68749,-3.23436 1.875,-4.17188 1.18749,-0.90623 2.90623,-1.35935 5.15625,-1.35937 2.21873,2e-5 3.81248,0.43752 4.78125,1.3125 0.93748,0.81252 1.40623,2.18752 1.40625,4.125 -2e-5,1.15626 -0.4219,1.96876 -1.26563,2.4375 -0.62502,0.37501 -1.65627,0.62501 -3.09375,0.75 l -1.3125,0.0937 c -1.81251,0.12501 -3.15626,0.26564 -4.03125,0.42187 -1.40626,0.21877 -2.60938,0.57814 -3.60937,1.07813 -1.34376,0.56251 -2.34376,1.37501 -3,2.4375 -0.68751,1.06251 -1.03126,2.32813 -1.03125,3.79687 -10e-6,2.15626 0.73437,3.89063 2.20312,5.20313 1.49999,1.34375 3.51562,2.01562 6.04688,2.01562 1.74998,0 3.39061,-0.35937 4.92187,-1.07812 1.53123,-0.71875 2.96873,-1.78125 4.3125,-3.1875 z m -0.14062,-9.51563 0,3.51563 c -2e-5,2.34375 -0.81252,4.21875 -2.4375,5.625 -1.59377,1.375 -3.68752,2.0625 -6.28125,2.0625 -1.75001,0 -3.14064,-0.4375 -4.17188,-1.3125 -1,-0.875 -1.5,-2.01562 -1.5,-3.42188 0,-1.34374 0.46875,-2.45311 1.40625,-3.32812 1.03124,-0.96874 2.48437,-1.56249 4.35938,-1.78125 l 2.90625,-0.375 c 1.46873,-0.12499 2.5156,-0.24999 3.14062,-0.375 1.03123,-0.15624 1.89061,-0.35937 2.57813,-0.60938 z"
           style="font-size:48px;fill:url(#linearGradient8725);fill-opacity:1;stroke:none;font-family:Dotum;-inkscape-font-specification:Dotum"
           id="path8662"
           inkscape:connector-curvature="0" />
        <path
           d="m 152.11536,308.64986 2.85937,0 0,-15.42188 c -1e-5,-2.28123 0.67187,-4.10935 2.01563,-5.48437 1.37499,-1.40623 3.21873,-2.10936 5.53125,-2.10938 1.46873,2e-5 2.60935,0.51565 3.42187,1.54688 0.81248,1.03127 1.21873,2.57814 1.21875,4.64062 l 0,16.82813 2.85938,0 0,-15.60938 c -3e-5,-2.21873 0.65622,-3.99998 1.96875,-5.34375 1.37497,-1.37498 3.21872,-2.06248 5.53125,-2.0625 1.62497,2e-5 2.81246,0.46877 3.5625,1.40625 0.74996,0.93752 1.12496,2.43752 1.125,4.5 l 0,17.10938 2.85937,0 0,-17.39063 c -4e-5,-2.71873 -0.64066,-4.7656 -1.92187,-6.14062 -1.28129,-1.34373 -3.12504,-2.0156 -5.53125,-2.01563 -1.87503,3e-5 -3.50003,0.40628 -4.875,1.21875 -1.37503,0.81253 -2.4844,2.03127 -3.32813,3.65625 -0.43752,-1.56248 -1.23439,-2.7656 -2.39062,-3.60937 -1.15627,-0.84373 -2.53127,-1.2656 -4.125,-1.26563 -1.81252,3e-5 -3.40626,0.40628 -4.78125,1.21875 -1.37501,0.78128 -2.48439,1.95315 -3.32813,3.51563 l 0,-4.125 -2.67187,0 z"
           style="font-size:48px;fill:url(#linearGradient8723);fill-opacity:1;stroke:none;font-family:Dotum;-inkscape-font-specification:Dotum"
           id="path8664"
           inkscape:connector-curvature="0" />
        <path
           d="m 196.17786,315.39986 2.85937,0 0,-10.96875 c 0.96874,1.59375 2.18749,2.8125 3.65625,3.65625 1.46874,0.84375 3.12499,1.26562 4.96875,1.26562 3.34373,0 6.01561,-1.375 8.01563,-4.125 1.81247,-2.46874 2.71872,-5.46874 2.71875,-9 -3e-5,-3.56248 -0.90628,-6.5781 -2.71875,-9.04687 -2.00002,-2.71873 -4.6719,-4.0781 -8.01563,-4.07813 -1.84376,3e-5 -3.51564,0.4219 -5.01562,1.26563 -1.40626,0.81252 -2.60939,1.98439 -3.60938,3.51562 l 0,-4.17187 -2.85937,0 z m 10.96875,-29.76563 c 2.59373,2e-5 4.65623,1.09377 6.1875,3.28125 1.40622,1.96877 2.10935,4.39064 2.10937,7.26563 -2e-5,2.84376 -0.70315,5.26563 -2.10937,7.26562 -1.53127,2.21875 -3.59377,3.32813 -6.1875,3.32813 -2.65627,0 -4.75001,-1.10938 -6.28125,-3.32813 -1.37501,-1.99999 -2.06251,-4.42186 -2.0625,-7.26562 -1e-5,-2.87499 0.68749,-5.29686 2.0625,-7.26563 1.53124,-2.18748 3.62498,-3.28123 6.28125,-3.28125 z"
           style="font-size:48px;fill:url(#linearGradient8721);fill-opacity:1;stroke:none;font-family:Dotum;-inkscape-font-specification:Dotum"
           id="path8666"
           inkscape:connector-curvature="0" />
      </g>
      <flowRoot
         xml:space="preserve"
         id="flowRoot8729"
         style="font-size:10px;font-style:normal;font-variant:normal;font-weight:normal;font-stretch:normal;text-align:center;line-height:125%;letter-spacing:0px;word-spacing:0px;text-anchor:middle;fill:#000000;fill-opacity:1;stroke:none;font-family:Segoe UI;-inkscape-font-specification:Segoe UI"
         transform="translate(-287.14285,-10)"><flowRegion
           id="flowRegion8731"><rect
             id="rect8733"
             width="375.71429"
             height="92.85714"
             x="305.71429"
             y="165.21933"
             style="text-align:center;text-anchor:middle" /></flowRegion><flowPara
           id="flowPara8735"
           style="font-size:18px;font-style:normal;font-variant:normal;font-weight:normal;font-stretch:normal;text-align:center;text-anchor:middle;font-family:Dotum;-inkscape-font-specification:Dotum">A RightsCon:Rio Mobile Technology day on Freedom, Privacy, &amp; Open-Source Software</flowPara></flowRoot>    </g>
  </g>
</svg>
